<?xml version="1.0" encoding="utf-8" ?>
<svg baseProfile="tiny" height="350" version="1.2" viewBox="0 0 350 350" width="350" xmlns="http://www.w3.org/2000/svg" xmlns:ev="http://www.w3.org/2001/xml-events" xmlns:xlink="http://www.w3.org/1999/xlink"><defs /><g fill="white" id="shapes"><circle cx="175.0" cy="175.0" r="125.0" stroke="black" stroke-width="5" /><g style="font-size:1.5rem;font-family:sans-serif;fill:black;dominant-baseline:central;text-anchor:middle;text-rendering:geometricPrecision"><text x="175.0" y="27.1875">0</text><text x="261.8820076044812" y="55.41717551895307">1</text><text x="315.5780413148774" y="129.3234255189531">2</text><text x="315.5780413148774" y="220.6765744810469">3</text><text x="261.8820076044812" y="294.58282448104694">4</text><text x="175.0" y="322.8125">5</text><text x="88.11799239551883" y="294.58282448104694">6</text><text x="34.42195868512263" y="220.67657448104694">7</text><text x="34.421958685122604" y="129.32342551895312">8</text><text x="88.1179923955188" y="55.4171755189531">9</text></g><line stroke="black" stroke-width="5" x1="175.0" x2="175.0" y1="59.375" y2="40.625" /><g style="font-size:1.5rem;font-family:sans-serif;fill:black;dominant-baseline:central;text-anchor:middle;text-rendering:geometricPrecision"><text x="175.0" y="27.1875">0</text><text x="261.8820076044812" y="55.41717551895307">1</text><text x="315.5780413148774" y="129.3234255189531">2</text><text x="315.5780413148774" y="220.6765744810469">3</text><text x="261.8820076044812" y="294.58282448104694">4</text><text x="175.0" y="322.8125">5</text><text x="88.11799239551883" y="294.58282448104694">6</text><text x="34.42195868512263" y="220.67657448104694">7</text><text x="34.421958685122604" y="129.32342551895312">8</text><text x="88.1179923955188" y="55.4171755189531">9</text></g><line stroke="black" stroke-width="5" x1="242.9627" x2="253.9836" y1="81.4574" y2="66.2883" /><g style="font-size:1.5rem;font-family:sans-serif;fill:black;dominant-baseline:central;text-anchor:middle;text-rendering:geometricPrecision"><text x="175.0" y="27.1875">0</text><text x="261.8820076044812" y="55.41717551895307">1</text><text x="315.5780413148774" y="129.3234255189531">2</text><text x="315.5780413148774" y="220.6765744810469">3</text><text x="261.8820076044812" y="294.58282448104694">4</text><text x="175.0" y="322.8125">5</text><text x="88.11799239551883" y="294.58282448104694">6</text><text x="34.42195868512263" y="220.67657448104694">7</text><text x="34.421958685122604" y="129.32342551895312">8</text><text x="88.1179923955188" y="55.4171755189531">9</text></g><line stroke="black" stroke-width="5" x1="284.9659" x2="302.7982" y1="139.2699" y2="133.4758" /><g style="font-size:1.5rem;font-family:sans-serif;fill:black;dominant-baseline:central;text-anchor:middle;text-rendering:geometricPrecision"><text x="175.0" y="27.1875">0</text><text x="261.8820076044812" y="55.41717551895307">1</text><text x="315.5780413148774" y="129.3234255189531">2</text><text x="315.5780413148774" y="220.6765744810469">3</text><text x="261.8820076044812" y="294.58282448104694">4</text><text x="175.0" y="322.8125">5</text><text x="88.11799239551883" y="294.58282448104694">6</text><text x="34.42195868512263" y="220.67657448104694">7</text><text x="34.421958685122604" y="129.32342551895312">8</text><text x="88.1179923955188" y="55.4171755189531">9</text></g><line stroke="black" stroke-width="5" x1="284.9659" x2="302.7982" y1="210.7301" y2="216.5242" /><g style="font-size:1.5rem;font-family:sans-serif;fill:black;dominant-baseline:central;text-anchor:middle;text-rendering:geometricPrecision"><text x="175.0" y="27.1875">0</text><text x="261.8820076044812" y="55.41717551895307">1</text><text x="315.5780413148774" y="129.3234255189531">2</text><text x="315.5780413148774" y="220.6765744810469">3</text><text x="261.8820076044812" y="294.58282448104694">4</text><text x="175.0" y="322.8125">5</text><text x="88.11799239551883" y="294.58282448104694">6</text><text x="34.42195868512263" y="220.67657448104694">7</text><text x="34.421958685122604" y="129.32342551895312">8</text><text x="88.1179923955188" y="55.4171755189531">9</text></g><line stroke="black" stroke-width="5" x1="242.9627" x2="253.9836" y1="268.5426" y2="283.7117" /><g style="font-size:1.5rem;font-family:sans-serif;fill:black;dominant-baseline:central;text-anchor:middle;text-rendering:geometricPrecision"><text x="175.0" y="27.1875">0</text><text x="261.8820076044812" y="55.41717551895307">1</text><text x="315.5780413148774" y="129.3234255189531">2</text><text x="315.5780413148774" y="220.6765744810469">3</text><text x="261.8820076044812" y="294.58282448104694">4</text><text x="175.0" y="322.8125">5</text><text x="88.11799239551883" y="294.58282448104694">6</text><text x="34.42195868512263" y="220.67657448104694">7</text><text x="34.421958685122604" y="129.32342551895312">8</text><text x="88.1179923955188" y="55.4171755189531">9</text></g><line stroke="black" stroke-width="5" x1="175.0" x2="175.0" y1="290.625" y2="309.375" /><g style="font-size:1.5rem;font-family:sans-serif;fill:black;dominant-baseline:central;text-anchor:middle;text-rendering:geometricPrecision"><text x="175.0" y="27.1875">0</text><text x="261.8820076044812" y="55.41717551895307">1</text><text x="315.5780413148774" y="129.3234255189531">2</text><text x="315.5780413148774" y="220.6765744810469">3</text><text x="261.8820076044812" y="294.58282448104694">4</text><text x="175.0" y="322.8125">5</text><text x="88.11799239551883" y="294.58282448104694">6</text><text x="34.42195868512263" y="220.67657448104694">7</text><text x="34.421958685122604" y="129.32342551895312">8</text><text x="88.1179923955188" y="55.4171755189531">9</text></g><line stroke="black" stroke-width="5" x1="107.0373" x2="96.0164" y1="268.5426" y2="283.7117" /><g style="font-size:1.5rem;font-family:sans-serif;fill:black;dominant-baseline:central;text-anchor:middle;text-rendering:geometricPrecision"><text x="175.0" y="27.1875">0</text><text x="261.8820076044812" y="55.41717551895307">1</text><text x="315.5780413148774" y="129.3234255189531">2</text><text x="315.5780413148774" y="220.6765744810469">3</text><text x="261.8820076044812" y="294.58282448104694">4</text><text x="175.0" y="322.8125">5</text><text x="88.11799239551883" y="294.58282448104694">6</text><text x="34.42195868512263" y="220.67657448104694">7</text><text x="34.421958685122604" y="129.32342551895312">8</text><text x="88.1179923955188" y="55.4171755189531">9</text></g><line stroke="black" stroke-width="5" x1="65.0341" x2="47.2018" y1="210.7301" y2="216.5242" /><g style="font-size:1.5rem;font-family:sans-serif;fill:black;dominant-baseline:central;text-anchor:middle;text-rendering:geometricPrecision"><text x="175.0" y="27.1875">0</text><text x="261.8820076044812" y="55.41717551895307">1</text><text x="315.5780413148774" y="129.3234255189531">2</text><text x="315.5780413148774" y="220.6765744810469">3</text><text x="261.8820076044812" y="294.58282448104694">4</text><text x="175.0" y="322.8125">5</text><text x="88.11799239551883" y="294.58282448104694">6</text><text x="34.42195868512263" y="220.67657448104694">7</text><text x="34.421958685122604" y="129.32342551895312">8</text><text x="88.1179923955188" y="55.4171755189531">9</text></g><line stroke="black" stroke-width="5" x1="65.0341" x2="47.2018" y1="139.2699" y2="133.4758" /><g style="font-size:1.5rem;font-family:sans-serif;fill:black;dominant-baseline:central;text-anchor:middle;text-rendering:geometricPrecision"><text x="175.0" y="27.1875">0</text><text x="261.8820076044812" y="55.41717551895307">1</text><text x="315.5780413148774" y="129.3234255189531">2</text><text x="315.5780413148774" y="220.6765744810469">3</text><text x="261.8820076044812" y="294.58282448104694">4</text><text x="175.0" y="322.8125">5</text><text x="88.11799239551883" y="294.58282448104694">6</text><text x="34.42195868512263" y="220.67657448104694">7</text><text x="34.421958685122604" y="129.32342551895312">8</text><text x="88.1179923955188" y="55.4171755189531">9</text></g><line stroke="black" stroke-width="5" x1="107.0373" x2="96.0164" y1="81.4574" y2="66.2883" /></g></svg>