<?xml version="1.0" encoding="utf-8" ?>
<svg baseProfile="tiny" height="250" version="1.2" viewBox="0 0 250 250" width="250" xmlns="http://www.w3.org/2000/svg" xmlns:ev="http://www.w3.org/2001/xml-events" xmlns:xlink="http://www.w3.org/1999/xlink"><defs /><g fill="white" id="shapes"><circle cx="125.0" cy="125.0" r="75.0" stroke="black" stroke-width="1" /><g style="font-size:1rem;font-family:sans-serif;fill:black;dominant-baseline:central;text-anchor:middle;text-rendering:geometricPrecision"><text x="125.0" y="28.25">000</text><text x="193.41258107979849" y="56.58741892020153">001</text><text x="221.75" y="125.0">010</text><text x="193.41258107979849" y="193.41258107979849">011</text><text x="125.0" y="221.75">-100</text><text x="56.58741892020153" y="193.41258107979849">-011</text><text x="28.25" y="125.00000000000001">-010</text><text x="56.587418920201515" y="56.58741892020153">-001</text></g><line stroke="black" stroke-width="1" x1="125.0" x2="125.0" y1="55.625" y2="44.375" /><g style="font-size:1rem;font-family:sans-serif;fill:black;dominant-baseline:central;text-anchor:middle;text-rendering:geometricPrecision"><text x="125.0" y="28.25">000</text><text x="193.41258107979849" y="56.58741892020153">001</text><text x="221.75" y="125.0">010</text><text x="193.41258107979849" y="193.41258107979849">011</text><text x="125.0" y="221.75">-100</text><text x="56.58741892020153" y="193.41258107979849">-011</text><text x="28.25" y="125.00000000000001">-010</text><text x="56.587418920201515" y="56.58741892020153">-001</text></g><line stroke="black" stroke-width="1" x1="174.0555" x2="182.0105" y1="75.9445" y2="67.9895" /><g style="font-size:1rem;font-family:sans-serif;fill:black;dominant-baseline:central;text-anchor:middle;text-rendering:geometricPrecision"><text x="125.0" y="28.25">000</text><text x="193.41258107979849" y="56.58741892020153">001</text><text x="221.75" y="125.0">010</text><text x="193.41258107979849" y="193.41258107979849">011</text><text x="125.0" y="221.75">-100</text><text x="56.58741892020153" y="193.41258107979849">-011</text><text x="28.25" y="125.00000000000001">-010</text><text x="56.587418920201515" y="56.58741892020153">-001</text></g><line stroke="black" stroke-width="1" x1="194.375" x2="205.625" y1="125.0" y2="125.0" /><g style="font-size:1rem;font-family:sans-serif;fill:black;dominant-baseline:central;text-anchor:middle;text-rendering:geometricPrecision"><text x="125.0" y="28.25">000</text><text x="193.41258107979849" y="56.58741892020153">001</text><text x="221.75" y="125.0">010</text><text x="193.41258107979849" y="193.41258107979849">011</text><text x="125.0" y="221.75">-100</text><text x="56.58741892020153" y="193.41258107979849">-011</text><text x="28.25" y="125.00000000000001">-010</text><text x="56.587418920201515" y="56.58741892020153">-001</text></g><line stroke="black" stroke-width="1" x1="174.0555" x2="182.0105" y1="174.0555" y2="182.0105" /><g style="font-size:1rem;font-family:sans-serif;fill:black;dominant-baseline:central;text-anchor:middle;text-rendering:geometricPrecision"><text x="125.0" y="28.25">000</text><text x="193.41258107979849" y="56.58741892020153">001</text><text x="221.75" y="125.0">010</text><text x="193.41258107979849" y="193.41258107979849">011</text><text x="125.0" y="221.75">-100</text><text x="56.58741892020153" y="193.41258107979849">-011</text><text x="28.25" y="125.00000000000001">-010</text><text x="56.587418920201515" y="56.58741892020153">-001</text></g><line stroke="black" stroke-width="1" x1="125.0" x2="125.0" y1="194.375" y2="205.625" /><g style="font-size:1rem;font-family:sans-serif;fill:black;dominant-baseline:central;text-anchor:middle;text-rendering:geometricPrecision"><text x="125.0" y="28.25">000</text><text x="193.41258107979849" y="56.58741892020153">001</text><text x="221.75" y="125.0">010</text><text x="193.41258107979849" y="193.41258107979849">011</text><text x="125.0" y="221.75">-100</text><text x="56.58741892020153" y="193.41258107979849">-011</text><text x="28.25" y="125.00000000000001">-010</text><text x="56.587418920201515" y="56.58741892020153">-001</text></g><line stroke="black" stroke-width="1" x1="75.9445" x2="67.9895" y1="174.0555" y2="182.0105" /><g style="font-size:1rem;font-family:sans-serif;fill:black;dominant-baseline:central;text-anchor:middle;text-rendering:geometricPrecision"><text x="125.0" y="28.25">000</text><text x="193.41258107979849" y="56.58741892020153">001</text><text x="221.75" y="125.0">010</text><text x="193.41258107979849" y="193.41258107979849">011</text><text x="125.0" y="221.75">-100</text><text x="56.58741892020153" y="193.41258107979849">-011</text><text x="28.25" y="125.00000000000001">-010</text><text x="56.587418920201515" y="56.58741892020153">-001</text></g><line stroke="black" stroke-width="1" x1="55.625" x2="44.375" y1="125.0" y2="125.0" /><g style="font-size:1rem;font-family:sans-serif;fill:black;dominant-baseline:central;text-anchor:middle;text-rendering:geometricPrecision"><text x="125.0" y="28.25">000</text><text x="193.41258107979849" y="56.58741892020153">001</text><text x="221.75" y="125.0">010</text><text x="193.41258107979849" y="193.41258107979849">011</text><text x="125.0" y="221.75">-100</text><text x="56.58741892020153" y="193.41258107979849">-011</text><text x="28.25" y="125.00000000000001">-010</text><text x="56.587418920201515" y="56.58741892020153">-001</text></g><line stroke="black" stroke-width="1" x1="75.9445" x2="67.9895" y1="75.9445" y2="67.9895" /></g></svg>