<?xml version="1.0" encoding="utf-8" ?>
<svg baseProfile="tiny" height="250" version="1.2" viewBox="0 0 250 250" width="250" xmlns="http://www.w3.org/2000/svg" xmlns:ev="http://www.w3.org/2001/xml-events" xmlns:xlink="http://www.w3.org/1999/xlink"><defs /><g fill="white" id="shapes"><circle cx="125.0" cy="125.0" r="75.0" stroke="black" stroke-width="1" /><g style="font-size:1rem;font-family:sans-serif;fill:black;dominant-baseline:central;text-anchor:middle;text-rendering:geometricPrecision"><text x="125.0" y="36.312499999999986">0</text><text x="177.12920456268873" y="53.25030531137183">1</text><text x="191.3462603525129" y="33.68220675992782">-9</text><text x="209.34682478892643" y="97.59405531137185">2</text><text x="232.35050427681546" y="90.11970675992782">-8</text><text x="209.34682478892643" y="152.40594468862815">3</text><text x="232.35050427681546" y="159.88029324007218">-7</text><text x="177.12920456268873" y="196.74969468862815">4</text><text x="191.3462603525129" y="216.31779324007218">-6</text><text x="125.0" y="213.6875">5</text><text x="125.0" y="237.875">-5</text><text x="72.87079543731129" y="196.74969468862815">6</text><text x="58.653739647487114" y="216.31779324007218">-4</text><text x="40.65317521107356" y="152.40594468862815">7</text><text x="17.649495723184558" y="159.8802932400722">-3</text><text x="40.653175211073545" y="97.59405531137186">8</text><text x="17.649495723184543" y="90.11970675992782">-2</text><text x="72.87079543731127" y="53.25030531137185">9</text><text x="58.653739647487086" y="33.68220675992784">-1</text></g><line stroke="black" stroke-width="1" x1="125.0" x2="125.0" y1="55.625" y2="44.375" /><g style="font-size:1rem;font-family:sans-serif;fill:black;dominant-baseline:central;text-anchor:middle;text-rendering:geometricPrecision"><text x="125.0" y="36.312499999999986">0</text><text x="177.12920456268873" y="53.25030531137183">1</text><text x="191.3462603525129" y="33.68220675992782">-9</text><text x="209.34682478892643" y="97.59405531137185">2</text><text x="232.35050427681546" y="90.11970675992782">-8</text><text x="209.34682478892643" y="152.40594468862815">3</text><text x="232.35050427681546" y="159.88029324007218">-7</text><text x="177.12920456268873" y="196.74969468862815">4</text><text x="191.3462603525129" y="216.31779324007218">-6</text><text x="125.0" y="213.6875">5</text><text x="125.0" y="237.875">-5</text><text x="72.87079543731129" y="196.74969468862815">6</text><text x="58.653739647487114" y="216.31779324007218">-4</text><text x="40.65317521107356" y="152.40594468862815">7</text><text x="17.649495723184558" y="159.8802932400722">-3</text><text x="40.653175211073545" y="97.59405531137186">8</text><text x="17.649495723184543" y="90.11970675992782">-2</text><text x="72.87079543731127" y="53.25030531137185">9</text><text x="58.653739647487086" y="33.68220675992784">-1</text></g><line stroke="black" stroke-width="1" x1="165.7776" x2="172.3902" y1="68.8744" y2="59.773" /><g style="font-size:1rem;font-family:sans-serif;fill:black;dominant-baseline:central;text-anchor:middle;text-rendering:geometricPrecision"><text x="125.0" y="36.312499999999986">0</text><text x="177.12920456268873" y="53.25030531137183">1</text><text x="191.3462603525129" y="33.68220675992782">-9</text><text x="209.34682478892643" y="97.59405531137185">2</text><text x="232.35050427681546" y="90.11970675992782">-8</text><text x="209.34682478892643" y="152.40594468862815">3</text><text x="232.35050427681546" y="159.88029324007218">-7</text><text x="177.12920456268873" y="196.74969468862815">4</text><text x="191.3462603525129" y="216.31779324007218">-6</text><text x="125.0" y="213.6875">5</text><text x="125.0" y="237.875">-5</text><text x="72.87079543731129" y="196.74969468862815">6</text><text x="58.653739647487114" y="216.31779324007218">-4</text><text x="40.65317521107356" y="152.40594468862815">7</text><text x="17.649495723184558" y="159.8802932400722">-3</text><text x="40.653175211073545" y="97.59405531137186">8</text><text x="17.649495723184543" y="90.11970675992782">-2</text><text x="72.87079543731127" y="53.25030531137185">9</text><text x="58.653739647487086" y="33.68220675992784">-1</text></g><g style="font-size:1rem;font-family:sans-serif;fill:black;dominant-baseline:central;text-anchor:middle;text-rendering:geometricPrecision"><text x="125.0" y="36.312499999999986">0</text><text x="177.12920456268873" y="53.25030531137183">1</text><text x="191.3462603525129" y="33.68220675992782">-9</text><text x="209.34682478892643" y="97.59405531137185">2</text><text x="232.35050427681546" y="90.11970675992782">-8</text><text x="209.34682478892643" y="152.40594468862815">3</text><text x="232.35050427681546" y="159.88029324007218">-7</text><text x="177.12920456268873" y="196.74969468862815">4</text><text x="191.3462603525129" y="216.31779324007218">-6</text><text x="125.0" y="213.6875">5</text><text x="125.0" y="237.875">-5</text><text x="72.87079543731129" y="196.74969468862815">6</text><text x="58.653739647487114" y="216.31779324007218">-4</text><text x="40.65317521107356" y="152.40594468862815">7</text><text x="17.649495723184558" y="159.8802932400722">-3</text><text x="40.653175211073545" y="97.59405531137186">8</text><text x="17.649495723184543" y="90.11970675992782">-2</text><text x="72.87079543731127" y="53.25030531137185">9</text><text x="58.653739647487086" y="33.68220675992784">-1</text></g><line stroke="black" stroke-width="1" x1="190.9795" x2="201.6789" y1="103.5619" y2="100.0855" /><g style="font-size:1rem;font-family:sans-serif;fill:black;dominant-baseline:central;text-anchor:middle;text-rendering:geometricPrecision"><text x="125.0" y="36.312499999999986">0</text><text x="177.12920456268873" y="53.25030531137183">1</text><text x="191.3462603525129" y="33.68220675992782">-9</text><text x="209.34682478892643" y="97.59405531137185">2</text><text x="232.35050427681546" y="90.11970675992782">-8</text><text x="209.34682478892643" y="152.40594468862815">3</text><text x="232.35050427681546" y="159.88029324007218">-7</text><text x="177.12920456268873" y="196.74969468862815">4</text><text x="191.3462603525129" y="216.31779324007218">-6</text><text x="125.0" y="213.6875">5</text><text x="125.0" y="237.875">-5</text><text x="72.87079543731129" y="196.74969468862815">6</text><text x="58.653739647487114" y="216.31779324007218">-4</text><text x="40.65317521107356" y="152.40594468862815">7</text><text x="17.649495723184558" y="159.8802932400722">-3</text><text x="40.653175211073545" y="97.59405531137186">8</text><text x="17.649495723184543" y="90.11970675992782">-2</text><text x="72.87079543731127" y="53.25030531137185">9</text><text x="58.653739647487086" y="33.68220675992784">-1</text></g><g style="font-size:1rem;font-family:sans-serif;fill:black;dominant-baseline:central;text-anchor:middle;text-rendering:geometricPrecision"><text x="125.0" y="36.312499999999986">0</text><text x="177.12920456268873" y="53.25030531137183">1</text><text x="191.3462603525129" y="33.68220675992782">-9</text><text x="209.34682478892643" y="97.59405531137185">2</text><text x="232.35050427681546" y="90.11970675992782">-8</text><text x="209.34682478892643" y="152.40594468862815">3</text><text x="232.35050427681546" y="159.88029324007218">-7</text><text x="177.12920456268873" y="196.74969468862815">4</text><text x="191.3462603525129" y="216.31779324007218">-6</text><text x="125.0" y="213.6875">5</text><text x="125.0" y="237.875">-5</text><text x="72.87079543731129" y="196.74969468862815">6</text><text x="58.653739647487114" y="216.31779324007218">-4</text><text x="40.65317521107356" y="152.40594468862815">7</text><text x="17.649495723184558" y="159.8802932400722">-3</text><text x="40.653175211073545" y="97.59405531137186">8</text><text x="17.649495723184543" y="90.11970675992782">-2</text><text x="72.87079543731127" y="53.25030531137185">9</text><text x="58.653739647487086" y="33.68220675992784">-1</text></g><line stroke="black" stroke-width="1" x1="190.9795" x2="201.6789" y1="146.4381" y2="149.9145" /><g style="font-size:1rem;font-family:sans-serif;fill:black;dominant-baseline:central;text-anchor:middle;text-rendering:geometricPrecision"><text x="125.0" y="36.312499999999986">0</text><text x="177.12920456268873" y="53.25030531137183">1</text><text x="191.3462603525129" y="33.68220675992782">-9</text><text x="209.34682478892643" y="97.59405531137185">2</text><text x="232.35050427681546" y="90.11970675992782">-8</text><text x="209.34682478892643" y="152.40594468862815">3</text><text x="232.35050427681546" y="159.88029324007218">-7</text><text x="177.12920456268873" y="196.74969468862815">4</text><text x="191.3462603525129" y="216.31779324007218">-6</text><text x="125.0" y="213.6875">5</text><text x="125.0" y="237.875">-5</text><text x="72.87079543731129" y="196.74969468862815">6</text><text x="58.653739647487114" y="216.31779324007218">-4</text><text x="40.65317521107356" y="152.40594468862815">7</text><text x="17.649495723184558" y="159.8802932400722">-3</text><text x="40.653175211073545" y="97.59405531137186">8</text><text x="17.649495723184543" y="90.11970675992782">-2</text><text x="72.87079543731127" y="53.25030531137185">9</text><text x="58.653739647487086" y="33.68220675992784">-1</text></g><g style="font-size:1rem;font-family:sans-serif;fill:black;dominant-baseline:central;text-anchor:middle;text-rendering:geometricPrecision"><text x="125.0" y="36.312499999999986">0</text><text x="177.12920456268873" y="53.25030531137183">1</text><text x="191.3462603525129" y="33.68220675992782">-9</text><text x="209.34682478892643" y="97.59405531137185">2</text><text x="232.35050427681546" y="90.11970675992782">-8</text><text x="209.34682478892643" y="152.40594468862815">3</text><text x="232.35050427681546" y="159.88029324007218">-7</text><text x="177.12920456268873" y="196.74969468862815">4</text><text x="191.3462603525129" y="216.31779324007218">-6</text><text x="125.0" y="213.6875">5</text><text x="125.0" y="237.875">-5</text><text x="72.87079543731129" y="196.74969468862815">6</text><text x="58.653739647487114" y="216.31779324007218">-4</text><text x="40.65317521107356" y="152.40594468862815">7</text><text x="17.649495723184558" y="159.8802932400722">-3</text><text x="40.653175211073545" y="97.59405531137186">8</text><text x="17.649495723184543" y="90.11970675992782">-2</text><text x="72.87079543731127" y="53.25030531137185">9</text><text x="58.653739647487086" y="33.68220675992784">-1</text></g><line stroke="black" stroke-width="1" x1="165.7776" x2="172.3902" y1="181.1256" y2="190.227" /><g style="font-size:1rem;font-family:sans-serif;fill:black;dominant-baseline:central;text-anchor:middle;text-rendering:geometricPrecision"><text x="125.0" y="36.312499999999986">0</text><text x="177.12920456268873" y="53.25030531137183">1</text><text x="191.3462603525129" y="33.68220675992782">-9</text><text x="209.34682478892643" y="97.59405531137185">2</text><text x="232.35050427681546" y="90.11970675992782">-8</text><text x="209.34682478892643" y="152.40594468862815">3</text><text x="232.35050427681546" y="159.88029324007218">-7</text><text x="177.12920456268873" y="196.74969468862815">4</text><text x="191.3462603525129" y="216.31779324007218">-6</text><text x="125.0" y="213.6875">5</text><text x="125.0" y="237.875">-5</text><text x="72.87079543731129" y="196.74969468862815">6</text><text x="58.653739647487114" y="216.31779324007218">-4</text><text x="40.65317521107356" y="152.40594468862815">7</text><text x="17.649495723184558" y="159.8802932400722">-3</text><text x="40.653175211073545" y="97.59405531137186">8</text><text x="17.649495723184543" y="90.11970675992782">-2</text><text x="72.87079543731127" y="53.25030531137185">9</text><text x="58.653739647487086" y="33.68220675992784">-1</text></g><g style="font-size:1rem;font-family:sans-serif;fill:black;dominant-baseline:central;text-anchor:middle;text-rendering:geometricPrecision"><text x="125.0" y="36.312499999999986">0</text><text x="177.12920456268873" y="53.25030531137183">1</text><text x="191.3462603525129" y="33.68220675992782">-9</text><text x="209.34682478892643" y="97.59405531137185">2</text><text x="232.35050427681546" y="90.11970675992782">-8</text><text x="209.34682478892643" y="152.40594468862815">3</text><text x="232.35050427681546" y="159.88029324007218">-7</text><text x="177.12920456268873" y="196.74969468862815">4</text><text x="191.3462603525129" y="216.31779324007218">-6</text><text x="125.0" y="213.6875">5</text><text x="125.0" y="237.875">-5</text><text x="72.87079543731129" y="196.74969468862815">6</text><text x="58.653739647487114" y="216.31779324007218">-4</text><text x="40.65317521107356" y="152.40594468862815">7</text><text x="17.649495723184558" y="159.8802932400722">-3</text><text x="40.653175211073545" y="97.59405531137186">8</text><text x="17.649495723184543" y="90.11970675992782">-2</text><text x="72.87079543731127" y="53.25030531137185">9</text><text x="58.653739647487086" y="33.68220675992784">-1</text></g><line stroke="black" stroke-width="1" x1="125.0" x2="125.0" y1="194.375" y2="205.625" /><g style="font-size:1rem;font-family:sans-serif;fill:black;dominant-baseline:central;text-anchor:middle;text-rendering:geometricPrecision"><text x="125.0" y="36.312499999999986">0</text><text x="177.12920456268873" y="53.25030531137183">1</text><text x="191.3462603525129" y="33.68220675992782">-9</text><text x="209.34682478892643" y="97.59405531137185">2</text><text x="232.35050427681546" y="90.11970675992782">-8</text><text x="209.34682478892643" y="152.40594468862815">3</text><text x="232.35050427681546" y="159.88029324007218">-7</text><text x="177.12920456268873" y="196.74969468862815">4</text><text x="191.3462603525129" y="216.31779324007218">-6</text><text x="125.0" y="213.6875">5</text><text x="125.0" y="237.875">-5</text><text x="72.87079543731129" y="196.74969468862815">6</text><text x="58.653739647487114" y="216.31779324007218">-4</text><text x="40.65317521107356" y="152.40594468862815">7</text><text x="17.649495723184558" y="159.8802932400722">-3</text><text x="40.653175211073545" y="97.59405531137186">8</text><text x="17.649495723184543" y="90.11970675992782">-2</text><text x="72.87079543731127" y="53.25030531137185">9</text><text x="58.653739647487086" y="33.68220675992784">-1</text></g><g style="font-size:1rem;font-family:sans-serif;fill:black;dominant-baseline:central;text-anchor:middle;text-rendering:geometricPrecision"><text x="125.0" y="36.312499999999986">0</text><text x="177.12920456268873" y="53.25030531137183">1</text><text x="191.3462603525129" y="33.68220675992782">-9</text><text x="209.34682478892643" y="97.59405531137185">2</text><text x="232.35050427681546" y="90.11970675992782">-8</text><text x="209.34682478892643" y="152.40594468862815">3</text><text x="232.35050427681546" y="159.88029324007218">-7</text><text x="177.12920456268873" y="196.74969468862815">4</text><text x="191.3462603525129" y="216.31779324007218">-6</text><text x="125.0" y="213.6875">5</text><text x="125.0" y="237.875">-5</text><text x="72.87079543731129" y="196.74969468862815">6</text><text x="58.653739647487114" y="216.31779324007218">-4</text><text x="40.65317521107356" y="152.40594468862815">7</text><text x="17.649495723184558" y="159.8802932400722">-3</text><text x="40.653175211073545" y="97.59405531137186">8</text><text x="17.649495723184543" y="90.11970675992782">-2</text><text x="72.87079543731127" y="53.25030531137185">9</text><text x="58.653739647487086" y="33.68220675992784">-1</text></g><line stroke="black" stroke-width="1" x1="84.2224" x2="77.6098" y1="181.1256" y2="190.227" /><g style="font-size:1rem;font-family:sans-serif;fill:black;dominant-baseline:central;text-anchor:middle;text-rendering:geometricPrecision"><text x="125.0" y="36.312499999999986">0</text><text x="177.12920456268873" y="53.25030531137183">1</text><text x="191.3462603525129" y="33.68220675992782">-9</text><text x="209.34682478892643" y="97.59405531137185">2</text><text x="232.35050427681546" y="90.11970675992782">-8</text><text x="209.34682478892643" y="152.40594468862815">3</text><text x="232.35050427681546" y="159.88029324007218">-7</text><text x="177.12920456268873" y="196.74969468862815">4</text><text x="191.3462603525129" y="216.31779324007218">-6</text><text x="125.0" y="213.6875">5</text><text x="125.0" y="237.875">-5</text><text x="72.87079543731129" y="196.74969468862815">6</text><text x="58.653739647487114" y="216.31779324007218">-4</text><text x="40.65317521107356" y="152.40594468862815">7</text><text x="17.649495723184558" y="159.8802932400722">-3</text><text x="40.653175211073545" y="97.59405531137186">8</text><text x="17.649495723184543" y="90.11970675992782">-2</text><text x="72.87079543731127" y="53.25030531137185">9</text><text x="58.653739647487086" y="33.68220675992784">-1</text></g><g style="font-size:1rem;font-family:sans-serif;fill:black;dominant-baseline:central;text-anchor:middle;text-rendering:geometricPrecision"><text x="125.0" y="36.312499999999986">0</text><text x="177.12920456268873" y="53.25030531137183">1</text><text x="191.3462603525129" y="33.68220675992782">-9</text><text x="209.34682478892643" y="97.59405531137185">2</text><text x="232.35050427681546" y="90.11970675992782">-8</text><text x="209.34682478892643" y="152.40594468862815">3</text><text x="232.35050427681546" y="159.88029324007218">-7</text><text x="177.12920456268873" y="196.74969468862815">4</text><text x="191.3462603525129" y="216.31779324007218">-6</text><text x="125.0" y="213.6875">5</text><text x="125.0" y="237.875">-5</text><text x="72.87079543731129" y="196.74969468862815">6</text><text x="58.653739647487114" y="216.31779324007218">-4</text><text x="40.65317521107356" y="152.40594468862815">7</text><text x="17.649495723184558" y="159.8802932400722">-3</text><text x="40.653175211073545" y="97.59405531137186">8</text><text x="17.649495723184543" y="90.11970675992782">-2</text><text x="72.87079543731127" y="53.25030531137185">9</text><text x="58.653739647487086" y="33.68220675992784">-1</text></g><line stroke="black" stroke-width="1" x1="59.0205" x2="48.3211" y1="146.4381" y2="149.9145" /><g style="font-size:1rem;font-family:sans-serif;fill:black;dominant-baseline:central;text-anchor:middle;text-rendering:geometricPrecision"><text x="125.0" y="36.312499999999986">0</text><text x="177.12920456268873" y="53.25030531137183">1</text><text x="191.3462603525129" y="33.68220675992782">-9</text><text x="209.34682478892643" y="97.59405531137185">2</text><text x="232.35050427681546" y="90.11970675992782">-8</text><text x="209.34682478892643" y="152.40594468862815">3</text><text x="232.35050427681546" y="159.88029324007218">-7</text><text x="177.12920456268873" y="196.74969468862815">4</text><text x="191.3462603525129" y="216.31779324007218">-6</text><text x="125.0" y="213.6875">5</text><text x="125.0" y="237.875">-5</text><text x="72.87079543731129" y="196.74969468862815">6</text><text x="58.653739647487114" y="216.31779324007218">-4</text><text x="40.65317521107356" y="152.40594468862815">7</text><text x="17.649495723184558" y="159.8802932400722">-3</text><text x="40.653175211073545" y="97.59405531137186">8</text><text x="17.649495723184543" y="90.11970675992782">-2</text><text x="72.87079543731127" y="53.25030531137185">9</text><text x="58.653739647487086" y="33.68220675992784">-1</text></g><g style="font-size:1rem;font-family:sans-serif;fill:black;dominant-baseline:central;text-anchor:middle;text-rendering:geometricPrecision"><text x="125.0" y="36.312499999999986">0</text><text x="177.12920456268873" y="53.25030531137183">1</text><text x="191.3462603525129" y="33.68220675992782">-9</text><text x="209.34682478892643" y="97.59405531137185">2</text><text x="232.35050427681546" y="90.11970675992782">-8</text><text x="209.34682478892643" y="152.40594468862815">3</text><text x="232.35050427681546" y="159.88029324007218">-7</text><text x="177.12920456268873" y="196.74969468862815">4</text><text x="191.3462603525129" y="216.31779324007218">-6</text><text x="125.0" y="213.6875">5</text><text x="125.0" y="237.875">-5</text><text x="72.87079543731129" y="196.74969468862815">6</text><text x="58.653739647487114" y="216.31779324007218">-4</text><text x="40.65317521107356" y="152.40594468862815">7</text><text x="17.649495723184558" y="159.8802932400722">-3</text><text x="40.653175211073545" y="97.59405531137186">8</text><text x="17.649495723184543" y="90.11970675992782">-2</text><text x="72.87079543731127" y="53.25030531137185">9</text><text x="58.653739647487086" y="33.68220675992784">-1</text></g><line stroke="black" stroke-width="1" x1="59.0205" x2="48.3211" y1="103.5619" y2="100.0855" /><g style="font-size:1rem;font-family:sans-serif;fill:black;dominant-baseline:central;text-anchor:middle;text-rendering:geometricPrecision"><text x="125.0" y="36.312499999999986">0</text><text x="177.12920456268873" y="53.25030531137183">1</text><text x="191.3462603525129" y="33.68220675992782">-9</text><text x="209.34682478892643" y="97.59405531137185">2</text><text x="232.35050427681546" y="90.11970675992782">-8</text><text x="209.34682478892643" y="152.40594468862815">3</text><text x="232.35050427681546" y="159.88029324007218">-7</text><text x="177.12920456268873" y="196.74969468862815">4</text><text x="191.3462603525129" y="216.31779324007218">-6</text><text x="125.0" y="213.6875">5</text><text x="125.0" y="237.875">-5</text><text x="72.87079543731129" y="196.74969468862815">6</text><text x="58.653739647487114" y="216.31779324007218">-4</text><text x="40.65317521107356" y="152.40594468862815">7</text><text x="17.649495723184558" y="159.8802932400722">-3</text><text x="40.653175211073545" y="97.59405531137186">8</text><text x="17.649495723184543" y="90.11970675992782">-2</text><text x="72.87079543731127" y="53.25030531137185">9</text><text x="58.653739647487086" y="33.68220675992784">-1</text></g><g style="font-size:1rem;font-family:sans-serif;fill:black;dominant-baseline:central;text-anchor:middle;text-rendering:geometricPrecision"><text x="125.0" y="36.312499999999986">0</text><text x="177.12920456268873" y="53.25030531137183">1</text><text x="191.3462603525129" y="33.68220675992782">-9</text><text x="209.34682478892643" y="97.59405531137185">2</text><text x="232.35050427681546" y="90.11970675992782">-8</text><text x="209.34682478892643" y="152.40594468862815">3</text><text x="232.35050427681546" y="159.88029324007218">-7</text><text x="177.12920456268873" y="196.74969468862815">4</text><text x="191.3462603525129" y="216.31779324007218">-6</text><text x="125.0" y="213.6875">5</text><text x="125.0" y="237.875">-5</text><text x="72.87079543731129" y="196.74969468862815">6</text><text x="58.653739647487114" y="216.31779324007218">-4</text><text x="40.65317521107356" y="152.40594468862815">7</text><text x="17.649495723184558" y="159.8802932400722">-3</text><text x="40.653175211073545" y="97.59405531137186">8</text><text x="17.649495723184543" y="90.11970675992782">-2</text><text x="72.87079543731127" y="53.25030531137185">9</text><text x="58.653739647487086" y="33.68220675992784">-1</text></g><line stroke="black" stroke-width="1" x1="84.2224" x2="77.6098" y1="68.8744" y2="59.773" /><g style="font-size:1rem;font-family:sans-serif;fill:black;dominant-baseline:central;text-anchor:middle;text-rendering:geometricPrecision"><text x="125.0" y="36.312499999999986">0</text><text x="177.12920456268873" y="53.25030531137183">1</text><text x="191.3462603525129" y="33.68220675992782">-9</text><text x="209.34682478892643" y="97.59405531137185">2</text><text x="232.35050427681546" y="90.11970675992782">-8</text><text x="209.34682478892643" y="152.40594468862815">3</text><text x="232.35050427681546" y="159.88029324007218">-7</text><text x="177.12920456268873" y="196.74969468862815">4</text><text x="191.3462603525129" y="216.31779324007218">-6</text><text x="125.0" y="213.6875">5</text><text x="125.0" y="237.875">-5</text><text x="72.87079543731129" y="196.74969468862815">6</text><text x="58.653739647487114" y="216.31779324007218">-4</text><text x="40.65317521107356" y="152.40594468862815">7</text><text x="17.649495723184558" y="159.8802932400722">-3</text><text x="40.653175211073545" y="97.59405531137186">8</text><text x="17.649495723184543" y="90.11970675992782">-2</text><text x="72.87079543731127" y="53.25030531137185">9</text><text x="58.653739647487086" y="33.68220675992784">-1</text></g></g></svg>