<?xml version="1.0" encoding="utf-8" ?>
<svg baseProfile="tiny" height="250" version="1.2" viewBox="0 0 250 250" width="250" xmlns="http://www.w3.org/2000/svg" xmlns:ev="http://www.w3.org/2001/xml-events" xmlns:xlink="http://www.w3.org/1999/xlink"><defs /><g fill="white" id="shapes"><circle cx="125.0" cy="125.0" r="75.0" stroke="black" stroke-width="1" /><g style="font-size:1rem;font-family:sans-serif;fill:black;dominant-baseline:central;text-anchor:middle;text-rendering:geometricPrecision"><text x="125.0" y="28.25">0</text><text x="181.86822315929678" y="46.727605794223834">1</text><text x="217.01471795155612" y="95.10260579422385">2</text><text x="217.01471795155612" y="154.89739420577615">3</text><text x="181.86822315929678" y="203.27239420577615">-6</text><text x="125.0" y="221.75">-5</text><text x="68.13177684070322" y="203.27239420577615">-4</text><text x="32.98528204844389" y="154.89739420577618">-3</text><text x="32.98528204844388" y="95.10260579422385">-2</text><text x="68.13177684070321" y="46.72760579422385">-1</text></g><line stroke="black" stroke-width="1" x1="125.0" x2="125.0" y1="55.625" y2="44.375" /><g style="font-size:1rem;font-family:sans-serif;fill:black;dominant-baseline:central;text-anchor:middle;text-rendering:geometricPrecision"><text x="125.0" y="28.25">0</text><text x="181.86822315929678" y="46.727605794223834">1</text><text x="217.01471795155612" y="95.10260579422385">2</text><text x="217.01471795155612" y="154.89739420577615">3</text><text x="181.86822315929678" y="203.27239420577615">-6</text><text x="125.0" y="221.75">-5</text><text x="68.13177684070322" y="203.27239420577615">-4</text><text x="32.98528204844389" y="154.89739420577618">-3</text><text x="32.98528204844388" y="95.10260579422385">-2</text><text x="68.13177684070321" y="46.72760579422385">-1</text></g><line stroke="black" stroke-width="1" x1="165.7776" x2="172.3902" y1="68.8744" y2="59.773" /><g style="font-size:1rem;font-family:sans-serif;fill:black;dominant-baseline:central;text-anchor:middle;text-rendering:geometricPrecision"><text x="125.0" y="28.25">0</text><text x="181.86822315929678" y="46.727605794223834">1</text><text x="217.01471795155612" y="95.10260579422385">2</text><text x="217.01471795155612" y="154.89739420577615">3</text><text x="181.86822315929678" y="203.27239420577615">-6</text><text x="125.0" y="221.75">-5</text><text x="68.13177684070322" y="203.27239420577615">-4</text><text x="32.98528204844389" y="154.89739420577618">-3</text><text x="32.98528204844388" y="95.10260579422385">-2</text><text x="68.13177684070321" y="46.72760579422385">-1</text></g><line stroke="black" stroke-width="1" x1="190.9795" x2="201.6789" y1="103.5619" y2="100.0855" /><g style="font-size:1rem;font-family:sans-serif;fill:black;dominant-baseline:central;text-anchor:middle;text-rendering:geometricPrecision"><text x="125.0" y="28.25">0</text><text x="181.86822315929678" y="46.727605794223834">1</text><text x="217.01471795155612" y="95.10260579422385">2</text><text x="217.01471795155612" y="154.89739420577615">3</text><text x="181.86822315929678" y="203.27239420577615">-6</text><text x="125.0" y="221.75">-5</text><text x="68.13177684070322" y="203.27239420577615">-4</text><text x="32.98528204844389" y="154.89739420577618">-3</text><text x="32.98528204844388" y="95.10260579422385">-2</text><text x="68.13177684070321" y="46.72760579422385">-1</text></g><line stroke="black" stroke-width="1" x1="190.9795" x2="201.6789" y1="146.4381" y2="149.9145" /><g style="font-size:1rem;font-family:sans-serif;fill:black;dominant-baseline:central;text-anchor:middle;text-rendering:geometricPrecision"><text x="125.0" y="28.25">0</text><text x="181.86822315929678" y="46.727605794223834">1</text><text x="217.01471795155612" y="95.10260579422385">2</text><text x="217.01471795155612" y="154.89739420577615">3</text><text x="181.86822315929678" y="203.27239420577615">-6</text><text x="125.0" y="221.75">-5</text><text x="68.13177684070322" y="203.27239420577615">-4</text><text x="32.98528204844389" y="154.89739420577618">-3</text><text x="32.98528204844388" y="95.10260579422385">-2</text><text x="68.13177684070321" y="46.72760579422385">-1</text></g><line stroke="black" stroke-width="1" x1="165.7776" x2="172.3902" y1="181.1256" y2="190.227" /><g style="font-size:1rem;font-family:sans-serif;fill:black;dominant-baseline:central;text-anchor:middle;text-rendering:geometricPrecision"><text x="125.0" y="28.25">0</text><text x="181.86822315929678" y="46.727605794223834">1</text><text x="217.01471795155612" y="95.10260579422385">2</text><text x="217.01471795155612" y="154.89739420577615">3</text><text x="181.86822315929678" y="203.27239420577615">-6</text><text x="125.0" y="221.75">-5</text><text x="68.13177684070322" y="203.27239420577615">-4</text><text x="32.98528204844389" y="154.89739420577618">-3</text><text x="32.98528204844388" y="95.10260579422385">-2</text><text x="68.13177684070321" y="46.72760579422385">-1</text></g><line stroke="black" stroke-width="1" x1="125.0" x2="125.0" y1="194.375" y2="205.625" /><g style="font-size:1rem;font-family:sans-serif;fill:black;dominant-baseline:central;text-anchor:middle;text-rendering:geometricPrecision"><text x="125.0" y="28.25">0</text><text x="181.86822315929678" y="46.727605794223834">1</text><text x="217.01471795155612" y="95.10260579422385">2</text><text x="217.01471795155612" y="154.89739420577615">3</text><text x="181.86822315929678" y="203.27239420577615">-6</text><text x="125.0" y="221.75">-5</text><text x="68.13177684070322" y="203.27239420577615">-4</text><text x="32.98528204844389" y="154.89739420577618">-3</text><text x="32.98528204844388" y="95.10260579422385">-2</text><text x="68.13177684070321" y="46.72760579422385">-1</text></g><line stroke="black" stroke-width="1" x1="84.2224" x2="77.6098" y1="181.1256" y2="190.227" /><g style="font-size:1rem;font-family:sans-serif;fill:black;dominant-baseline:central;text-anchor:middle;text-rendering:geometricPrecision"><text x="125.0" y="28.25">0</text><text x="181.86822315929678" y="46.727605794223834">1</text><text x="217.01471795155612" y="95.10260579422385">2</text><text x="217.01471795155612" y="154.89739420577615">3</text><text x="181.86822315929678" y="203.27239420577615">-6</text><text x="125.0" y="221.75">-5</text><text x="68.13177684070322" y="203.27239420577615">-4</text><text x="32.98528204844389" y="154.89739420577618">-3</text><text x="32.98528204844388" y="95.10260579422385">-2</text><text x="68.13177684070321" y="46.72760579422385">-1</text></g><line stroke="black" stroke-width="1" x1="59.0205" x2="48.3211" y1="146.4381" y2="149.9145" /><g style="font-size:1rem;font-family:sans-serif;fill:black;dominant-baseline:central;text-anchor:middle;text-rendering:geometricPrecision"><text x="125.0" y="28.25">0</text><text x="181.86822315929678" y="46.727605794223834">1</text><text x="217.01471795155612" y="95.10260579422385">2</text><text x="217.01471795155612" y="154.89739420577615">3</text><text x="181.86822315929678" y="203.27239420577615">-6</text><text x="125.0" y="221.75">-5</text><text x="68.13177684070322" y="203.27239420577615">-4</text><text x="32.98528204844389" y="154.89739420577618">-3</text><text x="32.98528204844388" y="95.10260579422385">-2</text><text x="68.13177684070321" y="46.72760579422385">-1</text></g><line stroke="black" stroke-width="1" x1="59.0205" x2="48.3211" y1="103.5619" y2="100.0855" /><g style="font-size:1rem;font-family:sans-serif;fill:black;dominant-baseline:central;text-anchor:middle;text-rendering:geometricPrecision"><text x="125.0" y="28.25">0</text><text x="181.86822315929678" y="46.727605794223834">1</text><text x="217.01471795155612" y="95.10260579422385">2</text><text x="217.01471795155612" y="154.89739420577615">3</text><text x="181.86822315929678" y="203.27239420577615">-6</text><text x="125.0" y="221.75">-5</text><text x="68.13177684070322" y="203.27239420577615">-4</text><text x="32.98528204844389" y="154.89739420577618">-3</text><text x="32.98528204844388" y="95.10260579422385">-2</text><text x="68.13177684070321" y="46.72760579422385">-1</text></g><line stroke="black" stroke-width="1" x1="84.2224" x2="77.6098" y1="68.8744" y2="59.773" /></g></svg>